<svg xmlns="http://www.w3.org/2000/svg" width="336" height="370" style="animation:heartbeat 1s infinite"><g fill-rule="evenodd"><path fill="#fcfcfc" d="M227.856 82.024c-1.33.393-2.649.909-2.93 1.149-.282.239-1.122.83-1.868 1.315-2.987 1.938-5.329 6.613-7.087 14.145-.251 1.074-.681 2.217-.957 2.539-.275.322-.618 1.113-.762 1.758-.292 1.302-1.549 4.835-2.364 6.64-.884 1.959-2.513 6.928-2.513 7.666 0 .382-.226.835-.501 1.006-.276.172-.924 1.719-1.44 3.438-.516 1.718-1.257 3.777-1.647 4.574-.39.797-.709 1.673-.709 1.946 0 .544-1.227 3.808-2.469 6.566-1.279 2.841-2.218 5.901-2.218 7.228 0 .382-.282.899-.625 1.15-.344.251-.763 1.15-.932 1.996-.401 2.014-1.466 5.081-2.391 6.891-.407.794-.74 1.759-.74 2.144 0 .386-.614 1.945-1.365 3.465-.752 1.52-1.531 3.543-1.733 4.495-.455 2.154-1.851 6.184-2.349 6.784-.204.246-.541 1.144-.748 1.995-.526 2.162-1.195 4.049-2.002 5.649-.379.751-.822 1.982-.983 2.734-.162.752-.536 1.714-.831 2.138-.295.423-.541 1.126-.548 1.562-.007.436-.445 1.671-.973 2.745s-.962 2.241-.964 2.592c-.002.352-.266 1.143-.587 1.758-.321.615-.585 1.387-.586 1.716-.002.328-.257.959-.567 1.403-.311.443-.781 1.664-1.045 2.712-.264 1.049-.712 2.351-.996 2.894-.283.543-.516 1.254-.517 1.579-.002.326-.331 1.205-.732 1.954-.401.748-.853 1.925-1.004 2.614-.151.689-.596 1.919-.99 2.734-.393.815-1.353 3.415-2.133 5.779-.78 2.363-1.664 4.824-1.965 5.468-.974 2.091-2.124 5.434-2.386 6.934-.14.806-.379 1.465-.531 1.465-.363 0-2.459 5.282-3.566 8.984-.887 2.965-2.518 7.442-3.122 8.566-.638 1.188-1.843 4.929-2.116 6.569-.152.912-.436 1.757-.632 1.878-.484.3-.455 3.974.034 4.276.214.133.39.54.39.905 0 4.337 6.457 9.023 11.799 8.564 3.977-.343 8.904-3.258 8.904-5.268 0-.184.197-.531.438-.771.601-.601 2.135-4.293 3.534-8.504.642-1.932 1.299-3.69 1.46-3.907.161-.216.796-1.976 1.41-3.909.615-1.934 1.321-3.78 1.57-4.102.634-.823 1.551-3.331 2.14-5.859.275-1.182.827-2.761 1.225-3.51.398-.749.724-1.628.726-1.953.001-.326.265-1.096.586-1.711.321-.615.584-1.318.584-1.562.001-.244.51-1.411 1.133-2.592.623-1.182 1.349-3.292 1.614-4.688.265-1.396.81-3.087 1.211-3.757.401-.67.729-1.589.729-2.041 0-.453.351-1.399.78-2.103.428-.703.78-1.762.781-2.353.001-.591.353-1.426.783-1.855.429-.43.781-1.294.781-1.921s.174-1.198.387-1.269c.214-.072.643-1.01.955-2.084.88-3.03 3.486-10.403 4.234-11.98.371-.781.674-1.642.674-1.915 0-.461 1.532-4.636 2.355-6.417.383-.829 2.481-6.522 4.319-11.719.608-1.719 1.113-3.411 1.122-3.761.009-.349.266-.843.572-1.097.305-.253.679-1.194.83-2.09.152-.896.496-1.984.764-2.419.269-.434.601-1.393.737-2.131.136-.738.481-1.617.766-1.953.602-.709 2.043-4.674 2.423-6.666.144-.752.483-1.631.754-1.953.271-.323.615-1.263.763-2.09.148-.828.542-2.146.874-2.93 1.302-3.071 1.789-4.185 2.1-4.801.178-.352.878-2.373 1.557-4.492 1.238-3.867 1.735-5.225 2.375-6.483.19-.373.346-.988.346-1.367.001-.379.324-1.217.718-1.863.394-.646.815-1.613.937-2.148.121-.536.775-2.469 1.454-4.295a430.56 430.56 0 0 0 2.392-6.641c.638-1.826 1.357-3.668 1.598-4.092.242-.425.666-1.568.944-2.54.277-.971.98-2.997 1.561-4.501 2.584-6.683 1.086-11.588-4.732-15.495-1.154-.775-5.603-2.493-5.823-2.248-.015.016-1.115.351-2.444.744m-89.593 29.298c-3.474.78-5.575 1.949-8.771 4.884-1.289 1.184-2.53 2.153-2.759 2.153-.561.001-2.514 2.072-2.514 2.667 0 .652-20.662 21.162-22.633 22.467-.872.577-1.586 1.302-1.586 1.611 0 .309-4.107 4.673-9.127 9.697-8.58 8.588-11.967 12.54-11.967 13.963 0 .336-.209.82-.465 1.076-.763.763-.907 7.147-.197 8.717.33.729.719 1.738.864 2.241.507 1.753 2.72 4.575 6.178 7.874 1.914 1.826 4.557 4.437 5.874 5.802 1.317 1.366 3.077 3.124 3.912 3.907.834.783 6.987 6.917 13.672 13.63 6.685 6.714 12.362 12.207 12.616 12.207.254 0 .574.352.71.782.137.43.5.781.808.781.308 0 .56.238.56.529 0 .584.692 1.349 4.13 4.567 6.459 6.045 8.428 7.014 14.248 7.014 3.116 0 4.283-.158 5.396-.73a81.49 81.49 0 0 1 2.593-1.27c1.317-.607 4.883-4.067 4.883-4.74-.001-.24.316-.799.704-1.243 1.969-2.254 2.524-10.317.93-13.502-1.542-3.079-2.761-4.921-4.071-6.15-4.371-4.101-21.777-21.643-22.687-22.865-.605-.812-1.791-1.913-2.637-2.446-.845-.534-1.536-1.16-1.536-1.391 0-.232-.335-.713-.743-1.07-2.137-1.865-1.984-13.944.208-16.419 2.268-2.56 17.042-17.237 17.352-17.237.204 0 .37-.167.37-.372s2.725-3.088 6.055-6.408c3.33-3.32 6.055-6.253 6.055-6.519 0-.265.263-.677.585-.916 4.308-3.191 1.241-17.77-4.388-20.859-3.172-1.74-3.875-2.035-4.848-2.035-.586 0-1.471-.15-1.969-.334-1.881-.693-2.942-.705-5.805-.063m120.331-.343c-.537.225-1.885.56-2.994.744-3.662.607-9.054 4.817-9.102 7.105-.007.366-.288.818-.624 1.006-.361.202-.768 1.288-.996 2.656a455.63 455.63 0 0 1-.594 3.501c-.518 2.937 1.249 8.09 3.813 11.118 1.887 2.23 9.762 10.157 10.09 10.157.195 0 .466.351.602.781.136.43.488.781.781.781.294 0 .645.352.782.781.136.43.368.783.514.784.722.007 16.476 16.19 16.48 16.928.001.249.28.98.619 1.624 3.176 6.039-.509 14.851-9.372 22.413-3.2 2.73-21.314 21.262-21.994 22.501-1.935 3.527-2.458 5.006-2.458 6.951 0 2.727.708 6.41 1.594 8.292.404.859.993 2.221 1.308 3.027.316.806.821 1.465 1.123 1.465.302 0 1.322.574 2.266 1.276 3.383 2.516 5.127 3.068 9.657 3.056 6.938-.019 5.937.77 32.217-25.401 30.981-30.853 29.317-29.116 29.791-31.106.151-.63.548-1.461.882-1.846 1.732-1.99.514-11.077-1.885-14.07-1.17-1.459-13.825-13.94-14.135-13.94-.175 0-.318-.178-.318-.395 0-.344-27.414-27.861-34.961-35.093-3.616-3.464-4.355-3.813-11.328-5.335-.43-.094-1.221.014-1.758.239"/><path fill="#1c448c" d="M191.211 41.762c-1.504.127-2.934.36-3.179.519-.244.159-3.019.45-6.166.647-3.146.197-5.938.538-6.203.758-.265.22-2.061.617-3.99.883-1.93.266-3.597.608-3.704.762-.108.153-1.778.67-3.711 1.148-1.934.478-4.663 1.354-6.066 1.946-1.402.591-3.775 1.382-5.273 1.756-1.498.374-4.042 1.295-5.653 2.046a465.102 465.102 0 0 1-5.078 2.327c-1.182.529-2.413 1.128-2.735 1.33-.322.202-1.025.543-1.562.757-.537.215-1.241.569-1.563.788-.322.22-1.19.675-1.928 1.013-.738.338-1.93 1.062-2.648 1.61-1.246.95-2.659 1.802-4.799 2.894-.537.274-2.264 1.519-3.838 2.766-1.575 1.247-3.386 2.538-4.025 2.869-.64.331-1.505.943-1.923 1.362-.419.418-.923.76-1.12.76-.198 0-1.065.659-1.926 1.465A78.806 78.806 0 0 1 110.887 75c-3.559 2.916-11.095 10.493-13.271 13.343-1.256 1.645-2.727 3.34-3.27 3.767-.543.427-.987.969-.987 1.205 0 .235-.351.648-.781.916-.43.269-.786.666-.792.882-.009.361-2.733 4.264-3.963 5.679-2.631 3.027-10.164 16.884-13.167 24.22l-2.395 5.847c-1.064 2.593-3.511 10.62-3.514 11.524-.001.43-.257 1.27-.568 1.867-.312.598-.765 2.53-1.006 4.295-.242 1.765-.606 3.41-.81 3.655-.333.402-.931 4.691-1.9 13.62-.447 4.13-.447 20.312.001 24.024.195 1.611.528 4.759.74 6.995.448 4.715.629 5.684 1.634 8.714.407 1.228.916 3.338 1.131 4.688.831 5.216 1.219 7.12 1.533 7.514.179.225.624 1.464.989 2.753.364 1.289 1.075 3.222 1.58 4.297.505 1.074 1.356 3.183 1.891 4.687 1.102 3.097 1.928 5.154 2.981 7.422.399.859.924 2.002 1.168 2.539.243.537.87 1.68 1.392 2.539.523.86 1.071 1.826 1.218 2.149.615 1.345 4.232 7.236 4.517 7.356.17.072.309.303.309.515 0 .211.439.96.976 1.664.538.704.977 1.415.977 1.579 0 .373 3.811 5.279 4.717 6.073.368.322.792.998.943 1.501.259.861 3.213 3.968 3.773 3.968.142 0 .698.747 1.235 1.66 1.183 2.011 21.933 22.949 22.743 22.949.315 0 .577.132.58.293.022.904 20.535 21.779 23.553 23.968.819.594 2.03 1.826 2.69 2.738.66.911 1.747 2.109 2.415 2.661.668.552 1.918 1.773 2.779 2.712 4.275 4.665 15.909 15.898 17.098 16.508.798.41 1.628 1.274 2.025 2.11.743 1.566 1.772 2.64 8.678 9.052 4.568 4.242 7.639 6.364 9.21 6.365.419 0 1.227.248 1.798.552 3.987 2.125 13.853 3.101 14.861 1.47.154-.25 1.062-.605 2.017-.789 1.683-.323 4.801-1.948 7.205-3.753a20.438 20.438 0 0 1 2.392-1.509c1.19-.612 84.913-84.032 84.913-84.605 0-.158.396-.643.879-1.078 1.094-.983 3.456-3.63 3.993-4.475.915-1.44 2.053-3.017 3.812-5.28 1.025-1.318 1.863-2.512 1.863-2.653 0-.142.665-1.173 1.479-2.292 2.56-3.52 4.719-7.237 5.209-8.963.259-.915 1.029-2.28 1.71-3.032.682-.752 1.461-2.158 1.732-3.125.271-.967 1.162-3.164 1.98-4.883 2.971-6.237 3.825-8.245 4.483-10.541.368-1.287.906-2.796 1.195-3.354.289-.558.808-2.67 1.155-4.693.346-2.022 1.141-5.4 1.766-7.506.625-2.105 1.245-5.181 1.378-6.836.132-1.654.403-3.518.601-4.142.198-.625.534-3.613.747-6.641.212-3.028.592-6.537.844-7.799.371-1.859.335-3.41-.188-8.203-.355-3.25-.81-7.579-1.011-9.62-.5-5.068-1.478-11.546-1.968-13.032-.222-.674-.577-2.588-.788-4.253-.21-1.664-.63-3.422-.932-3.906-.302-.484-.658-1.741-.791-2.794-.134-1.052-.397-2.107-.585-2.343-.188-.237-.88-2.1-1.537-4.141-1.679-5.217-5.137-13.542-7.219-17.383a80.901 80.901 0 0 1-1.177-2.323c-.728-1.49-5.198-8.8-7.954-13.009-.738-1.128-1.489-2.051-1.667-2.051-.178 0-.432-.307-.564-.683-.276-.787-1.838-3.055-2.893-4.2-.396-.429-1.499-1.748-2.452-2.929-3.016-3.742-10.151-11.538-11.164-12.201-.246-.161-2.707-2.246-5.469-4.634-2.762-2.388-5.725-4.789-6.584-5.337-.86-.547-2.56-1.759-3.779-2.693-1.219-.934-2.293-1.698-2.387-1.698-.094 0-1.475-.859-3.068-1.91-1.593-1.05-4.123-2.56-5.621-3.354-1.498-.795-2.899-1.588-3.114-1.763-.849-.692-7.124-3.756-8.595-4.197-.859-.257-2.604-1.001-3.879-1.653-1.274-.652-2.626-1.185-3.004-1.185-.378 0-.784-.158-.904-.352-.119-.193-1.14-.557-2.269-.809-1.129-.252-2.404-.597-2.833-.766-1.744-.688-7.462-2.383-8.019-2.377-.328.004-.965-.251-1.415-.567-.496-.347-2.646-.74-5.458-.998-2.552-.234-5.167-.661-5.811-.95-.645-.289-3.018-.721-5.274-.961l-7.422-.786c-3.659-.387-14.658-.423-18.945-.063m41.238 40.106c8.062 2.346 11.455 9.27 8.406 17.155-.581 1.504-1.284 3.53-1.561 4.501-.278.972-.702 2.115-.944 2.54-.241.424-.96 2.266-1.598 4.092a430.56 430.56 0 0 1-2.392 6.641c-.679 1.826-1.333 3.759-1.454 4.295-.122.535-.543 1.502-.937 2.148-.394.646-.717 1.484-.718 1.863 0 .379-.156.994-.346 1.367-.64 1.258-1.137 2.616-2.375 6.483-.679 2.119-1.379 4.14-1.557 4.492-.311.616-.798 1.73-2.1 4.801-.332.784-.726 2.102-.874 2.93-.148.827-.492 1.767-.763 2.09-.271.322-.61 1.201-.754 1.953-.38 1.992-1.821 5.957-2.423 6.666-.285.336-.63 1.215-.766 1.953s-.468 1.697-.737 2.131c-.268.435-.612 1.523-.764 2.419-.151.896-.525 1.837-.83 2.09-.306.254-.563.748-.572 1.097-.009.35-.514 2.042-1.122 3.761-1.838 5.197-3.936 10.89-4.319 11.719-.823 1.781-2.355 5.956-2.355 6.417 0 .273-.303 1.134-.674 1.915-.748 1.577-3.354 8.95-4.234 11.98-.312 1.074-.741 2.012-.955 2.084-.213.071-.387.642-.387 1.269 0 .627-.352 1.491-.781 1.921-.43.429-.782 1.264-.783 1.855-.001.591-.353 1.65-.781 2.353-.429.704-.78 1.65-.78 2.103 0 .452-.328 1.371-.729 2.041-.401.67-.946 2.361-1.211 3.757-.265 1.396-.991 3.506-1.614 4.688-.623 1.181-1.132 2.348-1.133 2.592 0 .244-.263.947-.584 1.562-.321.615-.585 1.385-.586 1.711-.002.325-.328 1.204-.726 1.953-.398.749-.95 2.328-1.225 3.51-.589 2.528-1.506 5.036-2.14 5.859-.249.322-.955 2.168-1.57 4.102-.614 1.933-1.249 3.693-1.41 3.909-.161.217-.818 1.975-1.46 3.907-1.399 4.211-2.933 7.903-3.534 8.504-.241.24-.438.587-.438.771 0 2.01-4.927 4.925-8.904 5.268-5.342.459-11.799-4.227-11.799-8.564 0-.365-.176-.772-.39-.905-.489-.302-.518-3.976-.034-4.276.196-.121.48-.966.632-1.878.273-1.64 1.478-5.381 2.116-6.569.604-1.124 2.235-5.601 3.122-8.566 1.107-3.702 3.203-8.984 3.566-8.984.152 0 .391-.659.531-1.465.262-1.5 1.412-4.843 2.386-6.934.301-.644 1.185-3.105 1.965-5.468.78-2.364 1.74-4.964 2.133-5.779.394-.815.839-2.045.99-2.734.151-.689.603-1.866 1.004-2.614.401-.749.73-1.628.732-1.954.001-.325.234-1.036.517-1.579.284-.543.732-1.845.996-2.894.264-1.048.734-2.269 1.045-2.712.31-.444.565-1.075.567-1.403.001-.329.265-1.101.586-1.716.321-.615.585-1.406.587-1.758.002-.351.436-1.518.964-2.592s.966-2.309.973-2.745c.007-.436.253-1.139.548-1.562.295-.424.669-1.386.831-2.138.161-.752.604-1.983.983-2.734.807-1.6 1.476-3.487 2.002-5.649.207-.851.544-1.749.748-1.995.498-.6 1.894-4.63 2.349-6.784.202-.952.981-2.975 1.733-4.495.751-1.52 1.365-3.079 1.365-3.465 0-.385.333-1.35.74-2.144.925-1.81 1.99-4.877 2.391-6.891.169-.846.588-1.745.932-1.996.343-.251.625-.768.625-1.15 0-1.327.939-4.387 2.218-7.228 1.242-2.758 2.469-6.022 2.469-6.566 0-.273.319-1.149.709-1.946.39-.797 1.131-2.856 1.647-4.574.516-1.719 1.164-3.266 1.44-3.438.275-.171.501-.624.501-1.006 0-.738 1.629-5.707 2.513-7.666.815-1.805 2.072-5.338 2.364-6.64.144-.645.487-1.436.762-1.758.276-.322.706-1.465.957-2.539 1.758-7.532 4.1-12.207 7.087-14.145.746-.485 1.586-1.076 1.868-1.315.281-.24 1.6-.756 2.93-1.149 1.329-.393 2.429-.728 2.444-.744.015-.017.982.248 2.149.588m-88.381 29.517c.498.184 1.383.334 1.969.334.973 0 1.676.295 4.848 2.035 5.629 3.089 8.696 17.668 4.388 20.859-.322.239-.585.651-.585.916 0 .266-2.725 3.199-6.055 6.519-3.33 3.32-6.055 6.203-6.055 6.408a.372.372 0 0 1-.37.372c-.31 0-15.084 14.677-17.352 17.237-2.192 2.475-2.345 14.554-.208 16.419.408.357.743.838.743 1.07 0 .231.691.857 1.536 1.391.846.533 2.032 1.634 2.637 2.446.91 1.222 18.316 18.764 22.687 22.865 1.31 1.229 2.529 3.071 4.071 6.15 1.594 3.185 1.039 11.248-.93 13.502-.388.444-.705 1.003-.704 1.243 0 .673-3.566 4.133-4.883 4.74a81.49 81.49 0 0 0-2.593 1.27c-1.113.572-2.28.73-5.396.73-5.82 0-7.789-.969-14.248-7.014-3.438-3.218-4.13-3.983-4.13-4.567 0-.291-.252-.529-.56-.529-.308 0-.671-.351-.808-.781-.136-.43-.456-.782-.71-.782-.254 0-5.931-5.493-12.616-12.207-6.685-6.713-12.838-12.847-13.672-13.63-.835-.783-2.595-2.541-3.912-3.907-1.317-1.365-3.96-3.976-5.874-5.802-3.458-3.299-5.671-6.121-6.178-7.874-.145-.503-.534-1.512-.864-2.241-.71-1.57-.566-7.954.197-8.717.256-.256.465-.74.465-1.076 0-1.423 3.387-5.375 11.967-13.963 5.02-5.024 9.127-9.388 9.127-9.697 0-.309.714-1.034 1.586-1.611 1.971-1.305 22.633-21.815 22.633-22.467 0-.595 1.953-2.666 2.514-2.667.229 0 1.47-.969 2.759-2.153 3.196-2.935 5.297-4.104 8.771-4.884 2.863-.642 3.924-.63 5.805.063m119.581.103c3.539.814 4.91 1.597 8.031 4.587 7.547 7.232 34.961 34.749 34.961 35.093 0 .217.143.395.318.395.31 0 12.965 12.481 14.135 13.94 2.399 2.993 3.617 12.08 1.885 14.07-.334.385-.731 1.216-.882 1.846-.474 1.99 1.19.253-29.791 31.106-26.28 26.171-25.279 25.382-32.217 25.401-4.53.012-6.274-.54-9.657-3.056-.944-.702-1.964-1.276-2.266-1.276-.302 0-.807-.659-1.123-1.465a59.726 59.726 0 0 0-1.308-3.027c-.886-1.882-1.594-5.565-1.594-8.292 0-1.945.523-3.424 2.458-6.951.68-1.239 18.794-19.771 21.994-22.501 8.863-7.562 12.548-16.374 9.372-22.413-.339-.644-.618-1.375-.619-1.624-.004-.738-15.758-16.921-16.48-16.928-.146-.001-.378-.354-.514-.784-.137-.429-.488-.781-.782-.781-.293 0-.645-.351-.781-.781-.136-.43-.407-.781-.602-.781-.328 0-8.203-7.927-10.09-10.157-2.564-3.028-4.331-8.181-3.813-11.118.115-.653.383-2.228.594-3.501.228-1.368.635-2.454.996-2.656.336-.188.617-.64.624-1.006.024-1.129.993-2.503 2.574-3.649 3.552-2.575 4.618-3.139 6.528-3.456 1.109-.184 2.457-.519 2.994-.744.537-.225 1.328-.333 1.758-.239.429.094 1.913.431 3.297.748"/></g></svg>
